<svg width="18" height="22" viewBox="0 0 18 22" fill="none" xmlns="http://www.w3.org/2000/svg">
<path d="M14.9479 11.7015C14.9697 9.98793 15.8225 8.40498 17.2083 7.50698C16.3294 6.18519 14.9109 5.37653 13.3793 5.32613C11.7673 5.14745 10.2074 6.34096 9.38503 6.34096C8.54745 6.34096 7.28345 5.34217 5.92374 5.37195C4.13326 5.4338 2.50378 6.4807 1.63139 8.12779C-0.224353 11.5113 1.15929 16.4824 2.93671 19.2176C3.82651 20.5577 4.86642 22.0513 6.22614 21.9986C7.55757 21.9414 8.0536 21.1052 9.66132 21.1052C11.2516 21.1052 11.7194 21.9986 13.1074 21.9643C14.5345 21.9414 15.4352 20.6196 16.2924 19.268C16.932 18.3127 17.4237 17.259 17.75 16.1433C16.0531 15.3897 14.9501 13.6395 14.9479 11.7015ZM12.3285 3.52785C13.1074 2.5428 13.4903 1.27827 13.3989 0C12.2089 0.130576 11.1102 0.73077 10.3205 1.67687C9.54167 2.61152 9.14572 3.83252 9.22404 5.07185C10.4271 5.0856 11.5715 4.51519 12.3285 3.52785Z" fill="#717E80"/>
</svg>
