<svg width="25" height="25" viewBox="0 0 25 25" fill="none" xmlns="http://www.w3.org/2000/svg">
<circle cx="12.4999" cy="12.4999" r="12.4999" fill="#002F36"/>
<path fill-rule="evenodd" clip-rule="evenodd" d="M7.29165 13.2439H16.1197L13.4166 16.4879C13.1532 16.8034 13.1964 17.2728 13.5119 17.5355C13.8281 17.7989 14.2968 17.7557 14.5602 17.4403L18.2804 12.976C18.3094 12.941 18.3236 12.9001 18.3452 12.8614C18.363 12.8302 18.3846 12.8034 18.398 12.7692C18.4315 12.6836 18.4516 12.5936 18.4516 12.5028C18.4516 12.502 18.4523 12.5006 18.4523 12.4998C18.4523 12.4991 18.4516 12.4976 18.4516 12.4968C18.4516 12.4061 18.4315 12.316 18.398 12.2305C18.3846 12.1962 18.363 12.1695 18.3452 12.1382C18.3236 12.0995 18.3094 12.0586 18.2804 12.0236L14.5602 7.55936C14.4121 7.38302 14.2008 7.2915 13.988 7.2915C13.8199 7.2915 13.651 7.34805 13.5119 7.46412C13.1964 7.72677 13.1532 8.19626 13.4166 8.51174L16.1197 11.7558H7.29165C6.88094 11.7558 6.54761 12.0891 6.54761 12.4998C6.54761 12.9105 6.88094 13.2439 7.29165 13.2439Z" fill="#90FFBC"/>
<circle cx="12.9312" cy="12.0689" r="12.0689" fill="#002F36"/>
<path d="M11.2068 17.2413L16.3792 12.0689L11.2068 6.89656L11.2068 17.2413Z" fill="#90FFBC"/>
</svg>
