<svg width="41" height="33" viewBox="0 0 41 33" fill="none" xmlns="http://www.w3.org/2000/svg">
<path d="M38.4999 0.600098V7.4001H34.5999C31.5332 7.4001 29.9999 8.93343 29.9999 12.0001V15.2001H31.6999C34.3666 15.2001 36.5666 16.0001 38.2999 17.6001C40.0999 19.2001 40.9999 21.2334 40.9999 23.7001C40.9999 26.3668 40.0999 28.5334 38.2999 30.2001C36.5666 31.8668 34.3666 32.7001 31.6999 32.7001C28.9666 32.7001 26.7332 31.8668 24.9999 30.2001C23.2666 28.4668 22.3999 26.1668 22.3999 23.3001V11.8001C22.3999 4.33343 26.1332 0.600098 33.5999 0.600098H38.4999ZM16.4999 0.600098V7.4001H12.5999C9.53324 7.4001 7.9999 8.93343 7.9999 12.0001V15.2001H9.6999C12.3666 15.2001 14.5666 16.0001 16.2999 17.6001C18.0999 19.2001 18.9999 21.2334 18.9999 23.7001C18.9999 26.3668 18.0999 28.5334 16.2999 30.2001C14.5666 31.8668 12.3666 32.7001 9.6999 32.7001C6.96657 32.7001 4.73324 31.8668 2.9999 30.2001C1.26657 28.4668 0.399902 26.1668 0.399902 23.3001V11.8001C0.399902 4.33343 4.13324 0.600098 11.5999 0.600098H16.4999Z" fill="#27D17E"/>
</svg>
