<svg width="19" height="22" viewBox="0 0 19 22" fill="none" xmlns="http://www.w3.org/2000/svg">
<path fill-rule="evenodd" clip-rule="evenodd" d="M10.0725 11.2215L0.259638 1.41602C0.146934 1.64361 0.0800781 1.92284 0.0800781 2.26135V20.1855C0.0800781 20.5278 0.148844 20.8128 0.265369 21.0404L10.0725 11.2215Z" fill="#717E80"/>
<path fill-rule="evenodd" clip-rule="evenodd" d="M0.289062 1.35361C0.292979 1.34381 0.298855 1.33597 0.30473 1.32617C0.298855 1.33597 0.294938 1.34577 0.289062 1.35361Z" fill="#717E80"/>
<path fill-rule="evenodd" clip-rule="evenodd" d="M10.6395 10.6541L13.6615 7.62844L2.13889 1.07423C1.81224 0.886805 1.50469 0.798828 1.22962 0.798828C1.09017 0.798828 0.962185 0.823688 0.84375 0.867676L10.6395 10.6541Z" fill="#717E80"/>
<path fill-rule="evenodd" clip-rule="evenodd" d="M17.9236 10.053L14.3915 8.04297L11.2129 11.2254L14.3915 14.4002L17.9236 12.3901C19.0544 11.7494 19.0544 10.6956 17.9236 10.053Z" fill="#717E80"/>
<path fill-rule="evenodd" clip-rule="evenodd" d="M10.6477 11.7949L0.873047 21.5851C1.22262 21.7037 1.66007 21.6463 2.13954 21.3747L13.6697 14.8129L10.6477 11.7949Z" fill="#717E80"/>
<path fill-rule="evenodd" clip-rule="evenodd" d="M0.279297 21.0723C0.325344 21.1568 0.377148 21.2336 0.436625 21.2989C0.377148 21.2298 0.321506 21.1568 0.279297 21.0723Z" fill="#717E80"/>
</svg>
